<mxfile host="app.diagrams.net" agent="Mozilla/5.0 (X11; Linux x86_64) AppleWebKit/537.36 (KHTML, like Gecko) Chrome/128.0.0.0 Safari/537.36" version="24.7.10">
  <diagram name="第 1 页" id="BZXpxGOtzpUpzHUIIofR">
    <mxGraphModel dx="1185" dy="599" grid="1" gridSize="10" guides="1" tooltips="1" connect="1" arrows="1" fold="1" page="1" pageScale="1" pageWidth="827" pageHeight="1169" math="0" shadow="0">
      <root>
        <mxCell id="0" />
        <mxCell id="1" parent="0" />
        <mxCell id="ZIO9TJMxXiqA3S-XjBuk-14" style="edgeStyle=orthogonalEdgeStyle;rounded=0;orthogonalLoop=1;jettySize=auto;html=1;exitX=1;exitY=0.5;exitDx=0;exitDy=0;entryX=0;entryY=0.5;entryDx=0;entryDy=0;" edge="1" parent="1" source="ZIO9TJMxXiqA3S-XjBuk-1" target="ZIO9TJMxXiqA3S-XjBuk-8">
          <mxGeometry relative="1" as="geometry">
            <Array as="points">
              <mxPoint x="215" y="360" />
              <mxPoint x="215" y="250" />
            </Array>
          </mxGeometry>
        </mxCell>
        <mxCell id="ZIO9TJMxXiqA3S-XjBuk-22" value="Mutex" style="edgeLabel;html=1;align=center;verticalAlign=middle;resizable=0;points=[];" vertex="1" connectable="0" parent="ZIO9TJMxXiqA3S-XjBuk-14">
          <mxGeometry x="0.0218" y="1" relative="1" as="geometry">
            <mxPoint as="offset" />
          </mxGeometry>
        </mxCell>
        <mxCell id="ZIO9TJMxXiqA3S-XjBuk-15" style="edgeStyle=orthogonalEdgeStyle;rounded=0;orthogonalLoop=1;jettySize=auto;html=1;exitX=1;exitY=0.5;exitDx=0;exitDy=0;entryX=0;entryY=0.5;entryDx=0;entryDy=0;" edge="1" parent="1" source="ZIO9TJMxXiqA3S-XjBuk-1" target="ZIO9TJMxXiqA3S-XjBuk-2">
          <mxGeometry relative="1" as="geometry">
            <Array as="points">
              <mxPoint x="220" y="360" />
              <mxPoint x="220" y="360" />
            </Array>
          </mxGeometry>
        </mxCell>
        <mxCell id="ZIO9TJMxXiqA3S-XjBuk-17" style="edgeStyle=orthogonalEdgeStyle;rounded=0;orthogonalLoop=1;jettySize=auto;html=1;exitX=1;exitY=0.5;exitDx=0;exitDy=0;entryX=0;entryY=0.5;entryDx=0;entryDy=0;" edge="1" parent="1" source="ZIO9TJMxXiqA3S-XjBuk-1" target="ZIO9TJMxXiqA3S-XjBuk-6">
          <mxGeometry relative="1" as="geometry" />
        </mxCell>
        <mxCell id="ZIO9TJMxXiqA3S-XjBuk-23" value="Mutex" style="edgeLabel;html=1;align=center;verticalAlign=middle;resizable=0;points=[];" vertex="1" connectable="0" parent="ZIO9TJMxXiqA3S-XjBuk-17">
          <mxGeometry x="-0.0468" relative="1" as="geometry">
            <mxPoint as="offset" />
          </mxGeometry>
        </mxCell>
        <mxCell id="ZIO9TJMxXiqA3S-XjBuk-1" value="A" style="rounded=1;whiteSpace=wrap;html=1;" vertex="1" parent="1">
          <mxGeometry x="70" y="330" width="120" height="60" as="geometry" />
        </mxCell>
        <mxCell id="ZIO9TJMxXiqA3S-XjBuk-19" style="edgeStyle=orthogonalEdgeStyle;rounded=0;orthogonalLoop=1;jettySize=auto;html=1;exitX=1;exitY=0.5;exitDx=0;exitDy=0;" edge="1" parent="1" source="ZIO9TJMxXiqA3S-XjBuk-2" target="ZIO9TJMxXiqA3S-XjBuk-3">
          <mxGeometry relative="1" as="geometry" />
        </mxCell>
        <mxCell id="ZIO9TJMxXiqA3S-XjBuk-24" value="" style="edgeStyle=orthogonalEdgeStyle;rounded=0;orthogonalLoop=1;jettySize=auto;html=1;" edge="1" parent="1" source="ZIO9TJMxXiqA3S-XjBuk-2" target="ZIO9TJMxXiqA3S-XjBuk-3">
          <mxGeometry relative="1" as="geometry" />
        </mxCell>
        <mxCell id="ZIO9TJMxXiqA3S-XjBuk-25" value="Mutex" style="edgeLabel;html=1;align=center;verticalAlign=middle;resizable=0;points=[];" vertex="1" connectable="0" parent="ZIO9TJMxXiqA3S-XjBuk-24">
          <mxGeometry x="-0.1481" y="-2" relative="1" as="geometry">
            <mxPoint as="offset" />
          </mxGeometry>
        </mxCell>
        <mxCell id="ZIO9TJMxXiqA3S-XjBuk-2" value="C" style="rounded=1;whiteSpace=wrap;html=1;" vertex="1" parent="1">
          <mxGeometry x="240" y="330" width="120" height="60" as="geometry" />
        </mxCell>
        <mxCell id="ZIO9TJMxXiqA3S-XjBuk-21" style="edgeStyle=orthogonalEdgeStyle;rounded=0;orthogonalLoop=1;jettySize=auto;html=1;exitX=1;exitY=0.5;exitDx=0;exitDy=0;entryX=0;entryY=0.5;entryDx=0;entryDy=0;" edge="1" parent="1" source="ZIO9TJMxXiqA3S-XjBuk-3" target="ZIO9TJMxXiqA3S-XjBuk-4">
          <mxGeometry relative="1" as="geometry" />
        </mxCell>
        <mxCell id="ZIO9TJMxXiqA3S-XjBuk-28" value="Mutex" style="edgeLabel;html=1;align=center;verticalAlign=middle;resizable=0;points=[];" vertex="1" connectable="0" parent="ZIO9TJMxXiqA3S-XjBuk-21">
          <mxGeometry x="-0.1615" y="1" relative="1" as="geometry">
            <mxPoint as="offset" />
          </mxGeometry>
        </mxCell>
        <mxCell id="ZIO9TJMxXiqA3S-XjBuk-3" value="F" style="rounded=1;whiteSpace=wrap;html=1;" vertex="1" parent="1">
          <mxGeometry x="414" y="330" width="120" height="60" as="geometry" />
        </mxCell>
        <mxCell id="ZIO9TJMxXiqA3S-XjBuk-4" value="H" style="rounded=1;whiteSpace=wrap;html=1;" vertex="1" parent="1">
          <mxGeometry x="580" y="330" width="120" height="60" as="geometry" />
        </mxCell>
        <mxCell id="ZIO9TJMxXiqA3S-XjBuk-20" style="edgeStyle=orthogonalEdgeStyle;rounded=0;orthogonalLoop=1;jettySize=auto;html=1;exitX=1;exitY=0.5;exitDx=0;exitDy=0;entryX=0;entryY=0.5;entryDx=0;entryDy=0;" edge="1" parent="1" source="ZIO9TJMxXiqA3S-XjBuk-6" target="ZIO9TJMxXiqA3S-XjBuk-7">
          <mxGeometry relative="1" as="geometry" />
        </mxCell>
        <mxCell id="ZIO9TJMxXiqA3S-XjBuk-27" value="Mutex" style="edgeLabel;html=1;align=center;verticalAlign=middle;resizable=0;points=[];" vertex="1" connectable="0" parent="ZIO9TJMxXiqA3S-XjBuk-20">
          <mxGeometry x="-0.127" relative="1" as="geometry">
            <mxPoint as="offset" />
          </mxGeometry>
        </mxCell>
        <mxCell id="ZIO9TJMxXiqA3S-XjBuk-6" value="D" style="rounded=1;whiteSpace=wrap;html=1;" vertex="1" parent="1">
          <mxGeometry x="240" y="440" width="120" height="60" as="geometry" />
        </mxCell>
        <mxCell id="ZIO9TJMxXiqA3S-XjBuk-7" value="G" style="rounded=1;whiteSpace=wrap;html=1;" vertex="1" parent="1">
          <mxGeometry x="414" y="440" width="120" height="60" as="geometry" />
        </mxCell>
        <mxCell id="ZIO9TJMxXiqA3S-XjBuk-18" style="edgeStyle=orthogonalEdgeStyle;rounded=0;orthogonalLoop=1;jettySize=auto;html=1;exitX=1;exitY=0.5;exitDx=0;exitDy=0;" edge="1" parent="1" source="ZIO9TJMxXiqA3S-XjBuk-8" target="ZIO9TJMxXiqA3S-XjBuk-9">
          <mxGeometry relative="1" as="geometry" />
        </mxCell>
        <mxCell id="ZIO9TJMxXiqA3S-XjBuk-26" value="Mutex" style="edgeLabel;html=1;align=center;verticalAlign=middle;resizable=0;points=[];" vertex="1" connectable="0" parent="ZIO9TJMxXiqA3S-XjBuk-18">
          <mxGeometry x="-0.0847" y="-1" relative="1" as="geometry">
            <mxPoint as="offset" />
          </mxGeometry>
        </mxCell>
        <mxCell id="ZIO9TJMxXiqA3S-XjBuk-8" value="B" style="rounded=1;whiteSpace=wrap;html=1;" vertex="1" parent="1">
          <mxGeometry x="240" y="220" width="120" height="60" as="geometry" />
        </mxCell>
        <mxCell id="ZIO9TJMxXiqA3S-XjBuk-9" value="E" style="rounded=1;whiteSpace=wrap;html=1;" vertex="1" parent="1">
          <mxGeometry x="414" y="220" width="120" height="60" as="geometry" />
        </mxCell>
      </root>
    </mxGraphModel>
  </diagram>
</mxfile>
